<?xml version="1.0" encoding="UTF-8" standalone="no"?>
<!DOCTYPE svg PUBLIC "-//W3C//DTD SVG 1.1//EN"
 "http://www.w3.org/Graphics/SVG/1.1/DTD/svg11.dtd">
<!-- Generated by graphviz version 3.0.0 (0)
 -->
<!-- Title: G Pages: 1 -->
<svg width="1520pt" height="834pt"
 viewBox="0.00 0.00 1519.57 834.05" xmlns="http://www.w3.org/2000/svg" xmlns:xlink="http://www.w3.org/1999/xlink">
<g id="graph0" class="graph" transform="scale(1 1) rotate(0) translate(4 830.05)">
<title>G</title><style>.edge>path:hover{stroke-width:8}</style>
<polygon fill="white" stroke="transparent" points="-4,4 -4,-830.05 1515.57,-830.05 1515.57,4 -4,4"/>
<!-- cerberus -->
<g id="node1" class="node">
<title>cerberus</title><style>.edge>path:hover{stroke-width:8}</style>
<ellipse fill="#c04040" stroke="black" cx="1270.69" cy="-256.49" rx="34.96" ry="18"/>
<text text-anchor="middle" x="1270.69" y="-253.99" font-family="Helvetica,sans-Serif" font-size="10.00" fill="#ffffff">cerberus</text>
</g>
<!-- rizpass_rizpass -->
<g id="node25" class="node">
<title>rizpass_rizpass</title><style>.edge>path:hover{stroke-width:8}</style>
<ellipse fill="#7a1e6d" stroke="black" cx="914.69" cy="-99.64" rx="38.37" ry="21.43"/>
<text text-anchor="middle" x="914.69" y="-102.64" font-family="Helvetica,sans-Serif" font-size="10.00" fill="#ffffff">rizpass.</text>
<text text-anchor="middle" x="914.69" y="-91.64" font-family="Helvetica,sans-Serif" font-size="10.00" fill="#ffffff">rizpass</text>
</g>
<!-- cerberus&#45;&gt;rizpass_rizpass -->
<g id="edge1" class="edge">
<title>cerberus&#45;&gt;rizpass_rizpass</title><style>.edge>path:hover{stroke-width:8}</style>
<path fill="none" stroke="black" d="M1295.83,-243.57C1323.25,-228.97 1360.84,-203.17 1341.69,-179.07"/>
<path fill="none" stroke="black" d="M1341.69,-177.07C1334.02,-167.41 1333.65,-162.51 1322.69,-156.85 1260.76,-124.88 1056.56,-109 962.68,-103.25"/>
<polygon fill="#c04040" stroke="black" points="962.79,-99.75 952.6,-102.65 962.37,-106.74 962.79,-99.75"/>
</g>
<!-- colorama -->
<g id="node2" class="node">
<title>colorama</title><style>.edge>path:hover{stroke-width:8}</style>
<ellipse fill="#f3d416" stroke="black" cx="706.69" cy="-491.77" rx="36.49" ry="18"/>
<text text-anchor="middle" x="706.69" y="-489.27" font-family="Helvetica,sans-Serif" font-size="10.00" fill="#000000">colorama</text>
</g>
<!-- rizpass_credentials -->
<g id="node19" class="node">
<title>rizpass_credentials</title><style>.edge>path:hover{stroke-width:8}</style>
<ellipse fill="#b620a1" stroke="black" cx="607.69" cy="-256.49" rx="50.41" ry="21.43"/>
<text text-anchor="middle" x="607.69" y="-259.49" font-family="Helvetica,sans-Serif" font-size="10.00" fill="#ffffff">rizpass.</text>
<text text-anchor="middle" x="607.69" y="-248.49" font-family="Helvetica,sans-Serif" font-size="10.00" fill="#ffffff">credentials</text>
</g>
<!-- colorama&#45;&gt;rizpass_credentials -->
<g id="edge2" class="edge">
<title>colorama&#45;&gt;rizpass_credentials</title><style>.edge>path:hover{stroke-width:8}</style>
<path fill="none" stroke="black" d="M703.66,-473.58C701.58,-457.76 700.21,-433.86 706.69,-414.35"/>
<path fill="none" stroke="black" d="M706.69,-412.35C717.39,-380.11 727.09,-363.08 706.69,-335.92"/>
<path fill="none" stroke="black" d="M706.69,-333.92C690.15,-311.89 665.68,-292.92 645.22,-279.4"/>
<polygon fill="#f3d416" stroke="black" points="647.03,-276.4 636.72,-273.94 643.24,-282.29 647.03,-276.4"/>
</g>
<!-- rizpass_database_manager -->
<g id="node20" class="node">
<title>rizpass_database_manager</title><style>.edge>path:hover{stroke-width:8}</style>
<ellipse fill="#7a286f" stroke="black" cx="1235.69" cy="-178.07" rx="77.56" ry="21.43"/>
<text text-anchor="middle" x="1235.69" y="-181.07" font-family="Helvetica,sans-Serif" font-size="10.00" fill="#ffffff">rizpass.</text>
<text text-anchor="middle" x="1235.69" y="-170.07" font-family="Helvetica,sans-Serif" font-size="10.00" fill="#ffffff">database_manager</text>
</g>
<!-- colorama&#45;&gt;rizpass_database_manager -->
<g id="edge3" class="edge">
<title>colorama&#45;&gt;rizpass_database_manager</title><style>.edge>path:hover{stroke-width:8}</style>
<path fill="none" stroke="black" d="M1129.69,-333.92C1134.19,-296.25 1158.12,-294.2 1167.69,-257.49"/>
</g>
<!-- rizpass_file_manager -->
<g id="node21" class="node">
<title>rizpass_file_manager</title><style>.edge>path:hover{stroke-width:8}</style>
<ellipse fill="#a83898" stroke="black" cx="522.69" cy="-178.07" rx="56.64" ry="21.43"/>
<text text-anchor="middle" x="522.69" y="-181.07" font-family="Helvetica,sans-Serif" font-size="10.00" fill="#ffffff">rizpass.</text>
<text text-anchor="middle" x="522.69" y="-170.07" font-family="Helvetica,sans-Serif" font-size="10.00" fill="#ffffff">file_manager</text>
</g>
<!-- colorama&#45;&gt;rizpass_file_manager -->
<g id="edge4" class="edge">
<title>colorama&#45;&gt;rizpass_file_manager</title><style>.edge>path:hover{stroke-width:8}</style>
<path fill="none" stroke="black" d="M529.69,-412.35C480.2,-364.52 540.88,-325.4 529.69,-257.49"/>
<path fill="none" stroke="black" d="M529.69,-255.49C527.73,-240.44 526.12,-223.64 524.95,-209.64"/>
<polygon fill="#f3d416" stroke="black" points="528.43,-209.24 524.14,-199.55 521.45,-209.8 528.43,-209.24"/>
</g>
<!-- rizpass_output -->
<g id="node23" class="node">
<title>rizpass_output</title><style>.edge>path:hover{stroke-width:8}</style>
<ellipse fill="#f906d6" stroke="black" cx="823.69" cy="-334.92" rx="50.75" ry="18"/>
<text text-anchor="middle" x="823.69" y="-332.42" font-family="Helvetica,sans-Serif" font-size="10.00" fill="#ffffff">rizpass.output</text>
</g>
<!-- colorama&#45;&gt;rizpass_output -->
<g id="edge5" class="edge">
<title>colorama&#45;&gt;rizpass_output</title><style>.edge>path:hover{stroke-width:8}</style>
<path fill="none" stroke="black" d="M706.69,-412.35C716.88,-381.65 748.17,-362.2 775.83,-350.61"/>
<polygon fill="#f3d416" stroke="black" points="777.4,-353.75 785.43,-346.83 774.84,-347.24 777.4,-353.75"/>
</g>
<!-- colorama&#45;&gt;rizpass_rizpass -->
<g id="edge6" class="edge">
<title>colorama&#45;&gt;rizpass_rizpass</title><style>.edge>path:hover{stroke-width:8}</style>
<path fill="none" stroke="black" d="M673.77,-483.89C640.3,-475.83 587.92,-460.21 548.69,-434.56 538.37,-427.81 538.79,-422.67 529.69,-414.35"/>
<path fill="none" stroke="black" d="M529.69,-412.35C504.57,-389.38 490.1,-387.82 477.69,-356.13 470.81,-338.57 475.39,-332.42 477.69,-313.71 480.82,-288.15 496.37,-282.81 491.69,-257.49"/>
<path fill="none" stroke="black" d="M491.69,-255.49C480.01,-210.47 425.87,-191.69 456.69,-156.85 483.55,-126.49 754.31,-109 866.45,-103.01"/>
<polygon fill="#f3d416" stroke="black" points="866.67,-106.5 876.47,-102.48 866.3,-99.51 866.67,-106.5"/>
</g>
<!-- rizpass_setup_rizpass -->
<g id="node27" class="node">
<title>rizpass_setup_rizpass</title><style>.edge>path:hover{stroke-width:8}</style>
<ellipse fill="#8a2e7d" stroke="black" cx="1134.69" cy="-21.21" rx="58.88" ry="21.43"/>
<text text-anchor="middle" x="1134.69" y="-24.21" font-family="Helvetica,sans-Serif" font-size="10.00" fill="#ffffff">rizpass.</text>
<text text-anchor="middle" x="1134.69" y="-13.21" font-family="Helvetica,sans-Serif" font-size="10.00" fill="#ffffff">setup_rizpass</text>
</g>
<!-- colorama&#45;&gt;rizpass_setup_rizpass -->
<g id="edge7" class="edge">
<title>colorama&#45;&gt;rizpass_setup_rizpass</title><style>.edge>path:hover{stroke-width:8}</style>
<path fill="none" stroke="black" d="M741.1,-485.58C840.22,-469.67 1119.93,-417.65 1129.69,-335.92"/>
<path fill="none" stroke="black" d="M1129.69,-333.92C1148.47,-305.61 1109.66,-284.92 1129.69,-257.49"/>
</g>
<!-- cryptography -->
<g id="node3" class="node">
<title>cryptography</title><style>.edge>path:hover{stroke-width:8}</style>
<ellipse fill="#54e619" stroke="black" cx="301.69" cy="-491.77" rx="47.86" ry="18"/>
<text text-anchor="middle" x="301.69" y="-489.27" font-family="Helvetica,sans-Serif" font-size="10.00" fill="#000000">cryptography</text>
</g>
<!-- rizpass_passwords -->
<g id="node24" class="node">
<title>rizpass_passwords</title><style>.edge>path:hover{stroke-width:8}</style>
<ellipse fill="#932483" stroke="black" cx="377.69" cy="-334.92" rx="48.17" ry="21.43"/>
<text text-anchor="middle" x="377.69" y="-337.92" font-family="Helvetica,sans-Serif" font-size="10.00" fill="#ffffff">rizpass.</text>
<text text-anchor="middle" x="377.69" y="-326.92" font-family="Helvetica,sans-Serif" font-size="10.00" fill="#ffffff">passwords</text>
</g>
<!-- cryptography&#45;&gt;rizpass_passwords -->
<g id="edge8" class="edge">
<title>cryptography&#45;&gt;rizpass_passwords</title><style>.edge>path:hover{stroke-width:8}</style>
<path fill="none" stroke="black" d="M330.16,-476.99C352.22,-464.09 378.88,-442.58 377.69,-414.35"/>
</g>
<!-- cryptography_fernet -->
<g id="node4" class="node">
<title>cryptography_fernet</title><style>.edge>path:hover{stroke-width:8}</style>
<ellipse fill="#5d9d43" stroke="black" cx="464.69" cy="-491.77" rx="58.88" ry="21.43"/>
<text text-anchor="middle" x="464.69" y="-494.77" font-family="Helvetica,sans-Serif" font-size="10.00" fill="#000000">cryptography.</text>
<text text-anchor="middle" x="464.69" y="-483.77" font-family="Helvetica,sans-Serif" font-size="10.00" fill="#000000">fernet</text>
</g>
<!-- cryptography_fernet&#45;&gt;rizpass_passwords -->
<g id="edge9" class="edge">
<title>cryptography_fernet&#45;&gt;rizpass_passwords</title><style>.edge>path:hover{stroke-width:8}</style>
<path fill="none" stroke="black" d="M427.52,-474.97C404.41,-462.4 378.86,-442.27 377.69,-414.35"/>
</g>
<!-- cryptography_hazmat -->
<g id="node5" class="node">
<title>cryptography_hazmat</title><style>.edge>path:hover{stroke-width:8}</style>
<ellipse fill="#60db2f" stroke="black" cx="527.69" cy="-570.2" rx="58.88" ry="21.43"/>
<text text-anchor="middle" x="527.69" y="-573.2" font-family="Helvetica,sans-Serif" font-size="10.00" fill="#000000">cryptography.</text>
<text text-anchor="middle" x="527.69" y="-562.2" font-family="Helvetica,sans-Serif" font-size="10.00" fill="#000000">hazmat</text>
</g>
<!-- cryptography_hazmat&#45;&gt;cryptography_fernet -->
<g id="edge10" class="edge">
<title>cryptography_hazmat&#45;&gt;cryptography_fernet</title><style>.edge>path:hover{stroke-width:8}</style>
<path fill="none" stroke="black" d="M511.47,-549.52C504.12,-540.6 495.31,-529.91 487.32,-520.23"/>
<polygon fill="#60db2f" stroke="black" points="489.92,-517.88 480.86,-512.39 484.52,-522.33 489.92,-517.88"/>
</g>
<!-- cryptography_hazmat&#45;&gt;rizpass_passwords -->
<g id="edge11" class="edge">
<title>cryptography_hazmat&#45;&gt;rizpass_passwords</title><style>.edge>path:hover{stroke-width:8}</style>
<path fill="none" stroke="black" d="M535.42,-549.06C542.24,-527.59 548.83,-493.58 532.69,-470.56 490.62,-410.56 380.77,-487.56 377.69,-414.35"/>
</g>
<!-- cryptography_hazmat_primitives -->
<g id="node6" class="node">
<title>cryptography_hazmat_primitives</title><style>.edge>path:hover{stroke-width:8}</style>
<ellipse fill="#65ce3b" stroke="black" cx="328.69" cy="-671.96" rx="58.88" ry="28.98"/>
<text text-anchor="middle" x="328.69" y="-680.46" font-family="Helvetica,sans-Serif" font-size="10.00" fill="#000000">cryptography.</text>
<text text-anchor="middle" x="328.69" y="-669.46" font-family="Helvetica,sans-Serif" font-size="10.00" fill="#000000">hazmat.</text>
<text text-anchor="middle" x="328.69" y="-658.46" font-family="Helvetica,sans-Serif" font-size="10.00" fill="#000000">primitives</text>
</g>
<!-- cryptography_hazmat_primitives&#45;&gt;cryptography_fernet -->
<g id="edge12" class="edge">
<title>cryptography_hazmat_primitives&#45;&gt;cryptography_fernet</title><style>.edge>path:hover{stroke-width:8}</style>
<path fill="none" stroke="black" d="M356.51,-646.04C375.82,-627.27 400.69,-599.92 415.69,-571.2"/>
<path fill="none" stroke="black" d="M415.69,-569.2C424.33,-552.65 435.46,-535.06 444.93,-520.93"/>
<polygon fill="#65ce3b" stroke="black" points="447.85,-522.86 450.57,-512.62 442.06,-518.93 447.85,-522.86"/>
</g>
<!-- cryptography_hazmat_primitives&#45;&gt;rizpass_passwords -->
<g id="edge13" class="edge">
<title>cryptography_hazmat_primitives&#45;&gt;rizpass_passwords</title><style>.edge>path:hover{stroke-width:8}</style>
<path fill="none" stroke="black" d="M295.12,-647.91C263.91,-625.14 222.66,-590.94 225.69,-571.2"/>
</g>
<!-- cryptography_hazmat_primitives_hashes -->
<g id="node7" class="node">
<title>cryptography_hazmat_primitives_hashes</title><style>.edge>path:hover{stroke-width:8}</style>
<ellipse fill="#5bc431" stroke="black" cx="58.69" cy="-789.28" rx="58.88" ry="36.54"/>
<text text-anchor="middle" x="58.69" y="-803.28" font-family="Helvetica,sans-Serif" font-size="10.00" fill="#000000">cryptography.</text>
<text text-anchor="middle" x="58.69" y="-792.28" font-family="Helvetica,sans-Serif" font-size="10.00" fill="#000000">hazmat.</text>
<text text-anchor="middle" x="58.69" y="-781.28" font-family="Helvetica,sans-Serif" font-size="10.00" fill="#000000">primitives.</text>
<text text-anchor="middle" x="58.69" y="-770.28" font-family="Helvetica,sans-Serif" font-size="10.00" fill="#000000">hashes</text>
</g>
<!-- cryptography_hazmat_primitives_hashes&#45;&gt;cryptography_fernet -->
<g id="edge14" class="edge">
<title>cryptography_hazmat_primitives_hashes&#45;&gt;cryptography_fernet</title><style>.edge>path:hover{stroke-width:8}</style>
<path fill="none" stroke="black" d="M415.69,-670.96C438.27,-632.8 395.17,-610.5 415.69,-571.2"/>
</g>
<!-- cryptography_hazmat_primitives_kdf_pbkdf2 -->
<g id="node9" class="node">
<title>cryptography_hazmat_primitives_kdf_pbkdf2</title><style>.edge>path:hover{stroke-width:8}</style>
<ellipse fill="#599640" stroke="black" cx="58.69" cy="-671.96" rx="58.88" ry="44.6"/>
<text text-anchor="middle" x="58.69" y="-691.46" font-family="Helvetica,sans-Serif" font-size="10.00" fill="#ffffff">cryptography.</text>
<text text-anchor="middle" x="58.69" y="-680.46" font-family="Helvetica,sans-Serif" font-size="10.00" fill="#ffffff">hazmat.</text>
<text text-anchor="middle" x="58.69" y="-669.46" font-family="Helvetica,sans-Serif" font-size="10.00" fill="#ffffff">primitives.</text>
<text text-anchor="middle" x="58.69" y="-658.46" font-family="Helvetica,sans-Serif" font-size="10.00" fill="#ffffff">kdf.</text>
<text text-anchor="middle" x="58.69" y="-647.46" font-family="Helvetica,sans-Serif" font-size="10.00" fill="#ffffff">pbkdf2</text>
</g>
<!-- cryptography_hazmat_primitives_hashes&#45;&gt;cryptography_hazmat_primitives_kdf_pbkdf2 -->
<g id="edge15" class="edge">
<title>cryptography_hazmat_primitives_hashes&#45;&gt;cryptography_hazmat_primitives_kdf_pbkdf2</title><style>.edge>path:hover{stroke-width:8}</style>
<path fill="none" stroke="black" d="M58.69,-752.42C58.69,-744.34 58.69,-735.59 58.69,-726.96"/>
<polygon fill="#5bc431" stroke="black" points="62.19,-726.91 58.69,-716.91 55.19,-726.91 62.19,-726.91"/>
</g>
<!-- cryptography_hazmat_primitives_hashes&#45;&gt;rizpass_passwords -->
<g id="edge16" class="edge">
<title>cryptography_hazmat_primitives_hashes&#45;&gt;rizpass_passwords</title><style>.edge>path:hover{stroke-width:8}</style>
<path fill="none" stroke="black" d="M116.49,-782.4C201.4,-772.73 354.39,-751.02 396.69,-716.51 413.05,-703.16 404.94,-691.13 415.69,-672.96"/>
<path fill="none" stroke="black" d="M415.69,-670.96C433.97,-640.07 407.21,-626.88 401.69,-591.41 389.47,-512.94 380.82,-493.7 377.69,-414.35"/>
</g>
<!-- cryptography_hazmat_primitives_kdf -->
<g id="node8" class="node">
<title>cryptography_hazmat_primitives_kdf</title><style>.edge>path:hover{stroke-width:8}</style>
<ellipse fill="#6ac247" stroke="black" cx="193.69" cy="-671.96" rx="58.88" ry="36.54"/>
<text text-anchor="middle" x="193.69" y="-685.96" font-family="Helvetica,sans-Serif" font-size="10.00" fill="#000000">cryptography.</text>
<text text-anchor="middle" x="193.69" y="-674.96" font-family="Helvetica,sans-Serif" font-size="10.00" fill="#000000">hazmat.</text>
<text text-anchor="middle" x="193.69" y="-663.96" font-family="Helvetica,sans-Serif" font-size="10.00" fill="#000000">primitives.</text>
<text text-anchor="middle" x="193.69" y="-652.96" font-family="Helvetica,sans-Serif" font-size="10.00" fill="#000000">kdf</text>
</g>
<!-- cryptography_hazmat_primitives_kdf&#45;&gt;rizpass_passwords -->
<g id="edge17" class="edge">
<title>cryptography_hazmat_primitives_kdf&#45;&gt;rizpass_passwords</title><style>.edge>path:hover{stroke-width:8}</style>
<path fill="none" stroke="black" d="M207.88,-636.06C214.78,-617.2 222.29,-593.31 225.69,-571.2"/>
</g>
<!-- cryptography_hazmat_primitives_kdf_pbkdf2&#45;&gt;rizpass_passwords -->
<g id="edge18" class="edge">
<title>cryptography_hazmat_primitives_kdf_pbkdf2&#45;&gt;rizpass_passwords</title><style>.edge>path:hover{stroke-width:8}</style>
<path fill="none" stroke="black" d="M102.4,-641.97C110.11,-637.03 118.09,-632.01 125.69,-627.41 169.31,-601.01 217.95,-621.59 225.69,-571.2"/>
<path fill="none" stroke="black" d="M225.69,-569.2C232.46,-525.07 216.6,-505.26 244.69,-470.56 285.07,-420.68 379.32,-478.5 377.69,-414.35"/>
<path fill="none" stroke="black" d="M377.69,-412.35C377.09,-397.24 377.03,-380.44 377.14,-366.44"/>
<polygon fill="#599640" stroke="black" points="380.64,-366.4 377.25,-356.36 373.64,-366.32 380.64,-366.4"/>
</g>
<!-- mysql -->
<g id="node10" class="node">
<title>mysql</title><style>.edge>path:hover{stroke-width:8}</style>
<ellipse fill="#3bce8f" stroke="black" cx="1371.69" cy="-334.92" rx="27.84" ry="18"/>
<text text-anchor="middle" x="1371.69" y="-332.42" font-family="Helvetica,sans-Serif" font-size="10.00" fill="#000000">mysql</text>
</g>
<!-- mysql&#45;&gt;rizpass_database_manager -->
<g id="edge19" class="edge">
<title>mysql&#45;&gt;rizpass_database_manager</title><style>.edge>path:hover{stroke-width:8}</style>
<path fill="none" stroke="black" d="M1351.66,-322.13C1346.25,-319.18 1340.33,-316.16 1334.69,-313.71 1262.89,-282.43 1148.74,-333.48 1167.69,-257.49"/>
</g>
<!-- mysql&#45;&gt;rizpass_setup_rizpass -->
<g id="edge20" class="edge">
<title>mysql&#45;&gt;rizpass_setup_rizpass</title><style>.edge>path:hover{stroke-width:8}</style>
<path fill="none" stroke="black" d="M1367.35,-317.02C1364.12,-300.76 1361.81,-275.98 1371.69,-257.49"/>
</g>
<!-- mysql_connector -->
<g id="node11" class="node">
<title>mysql_connector</title><style>.edge>path:hover{stroke-width:8}</style>
<ellipse fill="#31c485" stroke="black" cx="1279.69" cy="-334.92" rx="45.92" ry="21.43"/>
<text text-anchor="middle" x="1279.69" y="-337.92" font-family="Helvetica,sans-Serif" font-size="10.00" fill="#000000">mysql.</text>
<text text-anchor="middle" x="1279.69" y="-326.92" font-family="Helvetica,sans-Serif" font-size="10.00" fill="#000000">connector</text>
</g>
<!-- mysql_connector&#45;&gt;rizpass_database_manager -->
<g id="edge21" class="edge">
<title>mysql_connector&#45;&gt;rizpass_database_manager</title><style>.edge>path:hover{stroke-width:8}</style>
<path fill="none" stroke="black" d="M1247.08,-319.69C1212.34,-303.44 1162.92,-276.62 1167.69,-257.49"/>
</g>
<!-- mysql_connector&#45;&gt;rizpass_setup_rizpass -->
<g id="edge22" class="edge">
<title>mysql_connector&#45;&gt;rizpass_setup_rizpass</title><style>.edge>path:hover{stroke-width:8}</style>
<path fill="none" stroke="black" d="M1308.58,-318.25C1329.87,-305.04 1357.5,-284.05 1371.69,-257.49"/>
<path fill="none" stroke="black" d="M1371.69,-255.49C1389.57,-222.04 1428.87,-211.79 1409.69,-179.07"/>
<path fill="none" stroke="black" d="M1409.69,-177.07C1373.85,-115.9 1305.05,-162.08 1269.69,-100.64"/>
</g>
<!-- pymongo -->
<g id="node12" class="node">
<title>pymongo</title><style>.edge>path:hover{stroke-width:8}</style>
<ellipse fill="#0585e5" stroke="black" cx="1453.69" cy="-334.92" rx="36.49" ry="18"/>
<text text-anchor="middle" x="1453.69" y="-332.42" font-family="Helvetica,sans-Serif" font-size="10.00" fill="#ffffff">pymongo</text>
</g>
<!-- pymongo&#45;&gt;rizpass_database_manager -->
<g id="edge23" class="edge">
<title>pymongo&#45;&gt;rizpass_database_manager</title><style>.edge>path:hover{stroke-width:8}</style>
<path fill="none" stroke="black" d="M1428.86,-321.56C1422.4,-318.68 1415.38,-315.84 1408.69,-313.71 1330.13,-288.65 1306.32,-299.12 1226.69,-277.71 1199.92,-270.51 1160.98,-284.39 1167.69,-257.49"/>
</g>
<!-- pymongo&#45;&gt;rizpass_rizpass -->
<g id="edge24" class="edge">
<title>pymongo&#45;&gt;rizpass_rizpass</title><style>.edge>path:hover{stroke-width:8}</style>
<path fill="none" stroke="black" d="M1443.47,-317.55C1434.14,-302.29 1420.23,-278.75 1409.69,-257.49"/>
<path fill="none" stroke="black" d="M1409.69,-255.49C1389.5,-214.76 1369.97,-214.67 1341.69,-179.07"/>
</g>
<!-- pymongo&#45;&gt;rizpass_setup_rizpass -->
<g id="edge25" class="edge">
<title>pymongo&#45;&gt;rizpass_setup_rizpass</title><style>.edge>path:hover{stroke-width:8}</style>
<path fill="none" stroke="black" d="M1409.69,-255.49C1394.6,-225.06 1426.86,-208.37 1409.69,-179.07"/>
</g>
<!-- pymongo_collection -->
<g id="node13" class="node">
<title>pymongo_collection</title><style>.edge>path:hover{stroke-width:8}</style>
<ellipse fill="#3185c4" stroke="black" cx="1130.69" cy="-570.2" rx="45.92" ry="21.43"/>
<text text-anchor="middle" x="1130.69" y="-573.2" font-family="Helvetica,sans-Serif" font-size="10.00" fill="#ffffff">pymongo.</text>
<text text-anchor="middle" x="1130.69" y="-562.2" font-family="Helvetica,sans-Serif" font-size="10.00" fill="#ffffff">collection</text>
</g>
<!-- pymongo_collection&#45;&gt;pymongo -->
<g id="edge26" class="edge">
<title>pymongo_collection&#45;&gt;pymongo</title><style>.edge>path:hover{stroke-width:8}</style>
<path fill="none" stroke="black" d="M1167.69,-490.77C1211.39,-431.95 1258.26,-469.48 1322.69,-434.56 1362.89,-412.77 1404.22,-379.49 1429.43,-357.72"/>
<polygon fill="#3185c4" stroke="black" points="1431.8,-360.3 1437.02,-351.09 1427.19,-355.03 1431.8,-360.3"/>
</g>
<!-- pymongo_database -->
<g id="node14" class="node">
<title>pymongo_database</title><style>.edge>path:hover{stroke-width:8}</style>
<ellipse fill="#2f7fbc" stroke="black" cx="1093.69" cy="-491.77" rx="45.92" ry="21.43"/>
<text text-anchor="middle" x="1093.69" y="-494.77" font-family="Helvetica,sans-Serif" font-size="10.00" fill="#ffffff">pymongo.</text>
<text text-anchor="middle" x="1093.69" y="-483.77" font-family="Helvetica,sans-Serif" font-size="10.00" fill="#ffffff">database</text>
</g>
<!-- pymongo_collection&#45;&gt;pymongo_database -->
<g id="edge27" class="edge">
<title>pymongo_collection&#45;&gt;pymongo_database</title><style>.edge>path:hover{stroke-width:8}</style>
<path fill="none" stroke="black" d="M1116.54,-539.98C1113.65,-534 1110.61,-527.71 1107.72,-521.74"/>
<polygon fill="#3185c4" stroke="black" points="1113.46,-541.64 1120.97,-549.12 1119.76,-538.59 1113.46,-541.64"/>
<polygon fill="#3185c4" stroke="black" points="1110.85,-520.19 1103.35,-512.72 1104.55,-523.24 1110.85,-520.19"/>
</g>
<!-- pymongo_collection&#45;&gt;rizpass_database_manager -->
<g id="edge28" class="edge">
<title>pymongo_collection&#45;&gt;rizpass_database_manager</title><style>.edge>path:hover{stroke-width:8}</style>
<path fill="none" stroke="black" d="M1137.79,-549.1C1144.1,-532.91 1154.39,-510.07 1167.69,-492.77"/>
<path fill="none" stroke="black" d="M1167.69,-490.77C1188.4,-463.84 1160.48,-447.54 1167.69,-414.35"/>
</g>
<!-- pymongo_mongo_client -->
<g id="node15" class="node">
<title>pymongo_mongo_client</title><style>.edge>path:hover{stroke-width:8}</style>
<ellipse fill="#1888dd" stroke="black" cx="1254.69" cy="-413.35" rx="58.88" ry="21.43"/>
<text text-anchor="middle" x="1254.69" y="-416.35" font-family="Helvetica,sans-Serif" font-size="10.00" fill="#ffffff">pymongo.</text>
<text text-anchor="middle" x="1254.69" y="-405.35" font-family="Helvetica,sans-Serif" font-size="10.00" fill="#ffffff">mongo_client</text>
</g>
<!-- pymongo_database&#45;&gt;pymongo_mongo_client -->
<g id="edge30" class="edge">
<title>pymongo_database&#45;&gt;pymongo_mongo_client</title><style>.edge>path:hover{stroke-width:8}</style>
<path fill="none" stroke="black" d="M1133.79,-471.73C1157.31,-460.57 1187.04,-446.46 1211.13,-435.02"/>
<polygon fill="#2f7fbc" stroke="black" points="1132.27,-468.59 1124.73,-476.04 1135.27,-474.91 1132.27,-468.59"/>
<polygon fill="#2f7fbc" stroke="black" points="1212.87,-438.07 1220.4,-430.62 1209.86,-431.75 1212.87,-438.07"/>
</g>
<!-- pymongo_database&#45;&gt;rizpass_database_manager -->
<g id="edge31" class="edge">
<title>pymongo_database&#45;&gt;rizpass_database_manager</title><style>.edge>path:hover{stroke-width:8}</style>
<path fill="none" stroke="black" d="M1120.84,-474.31C1139.5,-460.94 1161.92,-440.12 1167.69,-414.35"/>
<path fill="none" stroke="black" d="M1167.69,-412.35C1182.74,-345.19 1150.38,-324.1 1167.69,-257.49"/>
</g>
<!-- pymongo_mongo_client&#45;&gt;pymongo -->
<g id="edge32" class="edge">
<title>pymongo_mongo_client&#45;&gt;pymongo</title><style>.edge>path:hover{stroke-width:8}</style>
<path fill="none" stroke="black" d="M1296.18,-398.12C1327.35,-387.2 1370.99,-371.46 1408.69,-356.13 1411.96,-354.8 1415.35,-353.38 1418.73,-351.92"/>
<polygon fill="#1888dd" stroke="black" points="1420.38,-355.01 1428.13,-347.79 1417.56,-348.61 1420.38,-355.01"/>
</g>
<!-- pymongo_mongo_client&#45;&gt;rizpass_database_manager -->
<g id="edge34" class="edge">
<title>pymongo_mongo_client&#45;&gt;rizpass_database_manager</title><style>.edge>path:hover{stroke-width:8}</style>
<path fill="none" stroke="black" d="M1234.16,-393.39C1220.93,-379.07 1206.11,-358.14 1205.69,-335.92"/>
<path fill="none" stroke="black" d="M1205.69,-333.92C1204.98,-295.99 1158.51,-294.3 1167.69,-257.49"/>
</g>
<!-- pymongo_mongo_client&#45;&gt;rizpass_rizpass -->
<g id="edge35" class="edge">
<title>pymongo_mongo_client&#45;&gt;rizpass_rizpass</title><style>.edge>path:hover{stroke-width:8}</style>
<path fill="none" stroke="black" d="M1205.69,-333.92C1205.46,-321.59 1214.5,-320.65 1224.69,-313.71 1260.28,-289.44 1286,-309.85 1314.69,-277.71 1344.96,-243.8 1369.96,-214.66 1341.69,-179.07"/>
</g>
<!-- pymongo_mongo_client&#45;&gt;rizpass_setup_rizpass -->
<g id="edge36" class="edge">
<title>pymongo_mongo_client&#45;&gt;rizpass_setup_rizpass</title><style>.edge>path:hover{stroke-width:8}</style>
<path fill="none" stroke="black" d="M1311.01,-407.36C1375.63,-400.35 1475.68,-385.04 1498.69,-356.13 1544.21,-298.94 1453.78,-254.31 1409.69,-179.07"/>
</g>
<!-- pyperclip -->
<g id="node16" class="node">
<title>pyperclip</title><style>.edge>path:hover{stroke-width:8}</style>
<ellipse fill="#6a47c2" stroke="black" cx="770.69" cy="-413.35" rx="36.49" ry="18"/>
<text text-anchor="middle" x="770.69" y="-410.85" font-family="Helvetica,sans-Serif" font-size="10.00" fill="#ffffff">pyperclip</text>
</g>
<!-- pyperclip&#45;&gt;rizpass_credentials -->
<g id="edge37" class="edge">
<title>pyperclip&#45;&gt;rizpass_credentials</title><style>.edge>path:hover{stroke-width:8}</style>
<path fill="none" stroke="black" d="M756.7,-396.64C743.38,-381.47 723.01,-357.65 706.69,-335.92"/>
</g>
<!-- pyperclip&#45;&gt;rizpass_rizpass -->
<g id="edge38" class="edge">
<title>pyperclip&#45;&gt;rizpass_rizpass</title><style>.edge>path:hover{stroke-width:8}</style>
<path fill="none" stroke="black" d="M800.38,-402.72C865.27,-379.82 1018.28,-315.15 1072.69,-199.28 1080.71,-182.21 1083.56,-172.26 1072.69,-156.85 1047.99,-121.84 999.47,-108.51 962.69,-103.5"/>
<polygon fill="#6a47c2" stroke="black" points="963,-100.01 952.65,-102.29 962.16,-106.96 963,-100.01"/>
</g>
<!-- rizpass___main__ -->
<g id="node17" class="node">
<title>rizpass___main__</title><style>.edge>path:hover{stroke-width:8}</style>
<ellipse fill="#b34ca4" stroke="black" cx="914.69" cy="-21.21" rx="43.68" ry="21.43"/>
<text text-anchor="middle" x="914.69" y="-24.21" font-family="Helvetica,sans-Serif" font-size="10.00" fill="#ffffff">rizpass.</text>
<text text-anchor="middle" x="914.69" y="-13.21" font-family="Helvetica,sans-Serif" font-size="10.00" fill="#ffffff">__main__</text>
</g>
<!-- rizpass_better_input -->
<g id="node18" class="node">
<title>rizpass_better_input</title><style>.edge>path:hover{stroke-width:8}</style>
<ellipse fill="#c431af" stroke="black" cx="781.69" cy="-256.49" rx="53.98" ry="21.43"/>
<text text-anchor="middle" x="781.69" y="-259.49" font-family="Helvetica,sans-Serif" font-size="10.00" fill="#ffffff">rizpass.</text>
<text text-anchor="middle" x="781.69" y="-248.49" font-family="Helvetica,sans-Serif" font-size="10.00" fill="#ffffff">better_input</text>
</g>
<!-- rizpass_better_input&#45;&gt;rizpass_rizpass -->
<g id="edge39" class="edge">
<title>rizpass_better_input&#45;&gt;rizpass_rizpass</title><style>.edge>path:hover{stroke-width:8}</style>
<path fill="none" stroke="black" d="M786.72,-235.03C792.81,-213.59 804.8,-179.91 824.69,-156.85 838.73,-140.58 858.66,-127.46 876.2,-118.01"/>
<polygon fill="#c431af" stroke="black" points="877.84,-121.1 885.11,-113.4 874.62,-114.88 877.84,-121.1"/>
</g>
<!-- rizpass_test_better_input -->
<g id="node28" class="node">
<title>rizpass_test_better_input</title><style>.edge>path:hover{stroke-width:8}</style>
<ellipse fill="#c040ad" stroke="black" cx="706.69" cy="-178.07" rx="70.92" ry="21.43"/>
<text text-anchor="middle" x="706.69" y="-181.07" font-family="Helvetica,sans-Serif" font-size="10.00" fill="#ffffff">rizpass.</text>
<text text-anchor="middle" x="706.69" y="-170.07" font-family="Helvetica,sans-Serif" font-size="10.00" fill="#ffffff">test_better_input</text>
</g>
<!-- rizpass_better_input&#45;&gt;rizpass_test_better_input -->
<g id="edge40" class="edge">
<title>rizpass_better_input&#45;&gt;rizpass_test_better_input</title><style>.edge>path:hover{stroke-width:8}</style>
<path fill="none" stroke="black" d="M762.76,-236.21C753.77,-227.04 742.88,-215.94 733.09,-205.97"/>
<polygon fill="#c431af" stroke="black" points="735.37,-203.3 725.87,-198.61 730.38,-208.2 735.37,-203.3"/>
</g>
<!-- rizpass_credentials&#45;&gt;rizpass_database_manager -->
<g id="edge41" class="edge">
<title>rizpass_credentials&#45;&gt;rizpass_database_manager</title><style>.edge>path:hover{stroke-width:8}</style>
<path fill="none" stroke="black" d="M652.12,-246.57C672.37,-242.72 696.68,-238.4 718.69,-235.28 875.27,-213.1 915.54,-217.01 1072.69,-199.28 1100.08,-196.19 1130.02,-192.55 1156.68,-189.22"/>
<polygon fill="#b620a1" stroke="black" points="1157.24,-192.68 1166.73,-187.96 1156.37,-185.73 1157.24,-192.68"/>
</g>
<!-- rizpass_credentials&#45;&gt;rizpass_file_manager -->
<g id="edge42" class="edge">
<title>rizpass_credentials&#45;&gt;rizpass_file_manager</title><style>.edge>path:hover{stroke-width:8}</style>
<path fill="none" stroke="black" d="M587.11,-236.99C576.31,-227.28 562.91,-215.23 551.13,-204.64"/>
<polygon fill="#b620a1" stroke="black" points="553.44,-202.01 543.67,-197.93 548.76,-207.22 553.44,-202.01"/>
</g>
<!-- rizpass_credentials&#45;&gt;rizpass_rizpass -->
<g id="edge43" class="edge">
<title>rizpass_credentials&#45;&gt;rizpass_rizpass</title><style>.edge>path:hover{stroke-width:8}</style>
<path fill="none" stroke="black" d="M605.5,-235.09C604.33,-212.74 606.24,-177.35 626.69,-156.85 659.7,-123.77 793.33,-109.23 866.39,-103.65"/>
<polygon fill="#b620a1" stroke="black" points="867,-107.12 876.71,-102.89 866.48,-100.14 867,-107.12"/>
</g>
<!-- rizpass_database_manager&#45;&gt;rizpass_rizpass -->
<g id="edge44" class="edge">
<title>rizpass_database_manager&#45;&gt;rizpass_rizpass</title><style>.edge>path:hover{stroke-width:8}</style>
<path fill="none" stroke="black" d="M1178.67,-163.49C1115.96,-148.56 1016.5,-124.88 959.25,-111.25"/>
<polygon fill="#7a286f" stroke="black" points="959.95,-107.82 949.41,-108.91 958.32,-114.63 959.95,-107.82"/>
</g>
<!-- rizpass_file_manager&#45;&gt;rizpass_rizpass -->
<g id="edge45" class="edge">
<title>rizpass_file_manager&#45;&gt;rizpass_rizpass</title><style>.edge>path:hover{stroke-width:8}</style>
<path fill="none" stroke="black" d="M565.68,-164.05C574.88,-161.49 584.57,-158.94 593.69,-156.85 690.33,-134.7 805.08,-116.53 867.86,-107.28"/>
<polygon fill="#a83898" stroke="black" points="868.47,-110.73 877.85,-105.82 867.45,-103.8 868.47,-110.73"/>
</g>
<!-- rizpass_misc -->
<g id="node22" class="node">
<title>rizpass_misc</title><style>.edge>path:hover{stroke-width:8}</style>
<ellipse fill="#c247b1" stroke="black" cx="878.69" cy="-178.07" rx="45.15" ry="18"/>
<text text-anchor="middle" x="878.69" y="-175.57" font-family="Helvetica,sans-Serif" font-size="10.00" fill="#ffffff">rizpass.misc</text>
</g>
<!-- rizpass_misc&#45;&gt;rizpass_rizpass -->
<g id="edge46" class="edge">
<title>rizpass_misc&#45;&gt;rizpass_rizpass</title><style>.edge>path:hover{stroke-width:8}</style>
<path fill="none" stroke="black" d="M886.68,-160.1C890.93,-151.08 896.27,-139.74 901.15,-129.39"/>
<polygon fill="#c247b1" stroke="black" points="904.36,-130.79 905.45,-120.25 898.02,-127.81 904.36,-130.79"/>
</g>
<!-- rizpass_output&#45;&gt;rizpass_better_input -->
<g id="edge47" class="edge">
<title>rizpass_output&#45;&gt;rizpass_better_input</title><style>.edge>path:hover{stroke-width:8}</style>
<path fill="none" stroke="black" d="M814.37,-316.96C809.4,-307.91 803.14,-296.53 797.44,-286.16"/>
<polygon fill="#f906d6" stroke="black" points="800.5,-284.46 792.62,-277.38 794.37,-287.83 800.5,-284.46"/>
</g>
<!-- rizpass_output&#45;&gt;rizpass_credentials -->
<g id="edge48" class="edge">
<title>rizpass_output&#45;&gt;rizpass_credentials</title><style>.edge>path:hover{stroke-width:8}</style>
<path fill="none" stroke="black" d="M788.99,-321.64C752.63,-308.78 695.29,-288.49 654.85,-274.18"/>
<polygon fill="#f906d6" stroke="black" points="655.8,-270.8 645.21,-270.77 653.47,-277.4 655.8,-270.8"/>
</g>
<!-- rizpass_output&#45;&gt;rizpass_database_manager -->
<g id="edge49" class="edge">
<title>rizpass_output&#45;&gt;rizpass_database_manager</title><style>.edge>path:hover{stroke-width:8}</style>
<path fill="none" stroke="black" d="M874.06,-333.08C939.22,-330.25 1054.89,-319.18 1143.69,-277.71 1156.33,-271.8 1164.32,-271.02 1167.69,-257.49"/>
<path fill="none" stroke="black" d="M1167.69,-255.49C1172.62,-235.72 1186.79,-218.32 1200.93,-205.13"/>
<polygon fill="#f906d6" stroke="black" points="1203.54,-207.49 1208.73,-198.25 1198.91,-202.25 1203.54,-207.49"/>
</g>
<!-- rizpass_output&#45;&gt;rizpass_file_manager -->
<g id="edge50" class="edge">
<title>rizpass_output&#45;&gt;rizpass_file_manager</title><style>.edge>path:hover{stroke-width:8}</style>
<path fill="none" stroke="black" d="M794.3,-320.09C772.76,-309.51 743.12,-293.99 718.69,-277.71 693.87,-261.16 692.45,-250.31 666.69,-235.28 638.08,-218.58 603.57,-204.92 575.52,-195.24"/>
<polygon fill="#f906d6" stroke="black" points="576.48,-191.87 565.88,-191.99 574.24,-198.5 576.48,-191.87"/>
</g>
<!-- rizpass_output&#45;&gt;rizpass_rizpass -->
<g id="edge51" class="edge">
<title>rizpass_output&#45;&gt;rizpass_rizpass</title><style>.edge>path:hover{stroke-width:8}</style>
<path fill="none" stroke="black" d="M842.9,-318.09C869.11,-295.12 914.82,-249.74 932.69,-199.28 940.69,-176.68 934.87,-149.84 927.79,-129.87"/>
<polygon fill="#f906d6" stroke="black" points="931,-128.48 924.15,-120.39 924.47,-130.98 931,-128.48"/>
</g>
<!-- rizpass_output&#45;&gt;rizpass_setup_rizpass -->
<g id="edge52" class="edge">
<title>rizpass_output&#45;&gt;rizpass_setup_rizpass</title><style>.edge>path:hover{stroke-width:8}</style>
<path fill="none" stroke="black" d="M868.3,-326.3C949.85,-311.86 1115.95,-279.98 1129.69,-257.49"/>
<path fill="none" stroke="black" d="M1129.69,-255.49C1152.97,-217.4 1121.21,-192.04 1148.69,-156.85 1185.19,-110.12 1299.27,-152.03 1269.69,-100.64"/>
<path fill="none" stroke="black" d="M1269.69,-98.64C1251.4,-69.7 1217.98,-50.65 1188.97,-38.81"/>
<polygon fill="#f906d6" stroke="black" points="1189.92,-35.43 1179.33,-35.07 1187.39,-41.95 1189.92,-35.43"/>
</g>
<!-- rizpass_passwords&#45;&gt;rizpass_credentials -->
<g id="edge53" class="edge">
<title>rizpass_passwords&#45;&gt;rizpass_credentials</title><style>.edge>path:hover{stroke-width:8}</style>
<path fill="none" stroke="black" d="M415.16,-321.47C454.48,-308.4 516.45,-287.81 559.41,-273.53"/>
<polygon fill="#932483" stroke="black" points="560.7,-276.79 569.09,-270.32 558.5,-270.15 560.7,-276.79"/>
</g>
<!-- rizpass_passwords&#45;&gt;rizpass_rizpass -->
<g id="edge54" class="edge">
<title>rizpass_passwords&#45;&gt;rizpass_rizpass</title><style>.edge>path:hover{stroke-width:8}</style>
<path fill="none" stroke="black" d="M359.07,-314.85C350.47,-304.7 341.18,-291.49 336.69,-277.71 330.85,-259.78 329.03,-252.51 336.69,-235.28 357.85,-187.72 376.24,-178.26 423.69,-156.85 463.55,-138.87 751.25,-113.88 866.82,-104.45"/>
<polygon fill="#932483" stroke="black" points="867.12,-107.94 876.8,-103.64 866.55,-100.96 867.12,-107.94"/>
</g>
<!-- rizpass_rizpass&#45;&gt;rizpass___main__ -->
<g id="edge55" class="edge">
<title>rizpass_rizpass&#45;&gt;rizpass___main__</title><style>.edge>path:hover{stroke-width:8}</style>
<path fill="none" stroke="black" d="M914.69,-78.16C914.69,-70.3 914.69,-61.16 914.69,-52.57"/>
<polygon fill="#7a1e6d" stroke="black" points="918.19,-52.49 914.69,-42.49 911.19,-52.49 918.19,-52.49"/>
</g>
<!-- rizpass_rizpass&#45;&gt;rizpass_setup_rizpass -->
<g id="edge56" class="edge">
<title>rizpass_rizpass&#45;&gt;rizpass_setup_rizpass</title><style>.edge>path:hover{stroke-width:8}</style>
<path fill="none" stroke="black" d="M956.25,-84.2C992.56,-71.59 1045.38,-53.24 1084.13,-39.78"/>
<polygon fill="#7a1e6d" stroke="black" points="954.98,-80.94 946.68,-87.53 957.27,-87.55 954.98,-80.94"/>
<polygon fill="#7a1e6d" stroke="black" points="1085.36,-43.05 1093.66,-36.47 1083.07,-36.44 1085.36,-43.05"/>
</g>
<!-- rizpass_schemas -->
<g id="node26" class="node">
<title>rizpass_schemas</title><style>.edge>path:hover{stroke-width:8}</style>
<ellipse fill="#c247b1" stroke="black" cx="1021.69" cy="-178.07" rx="42.35" ry="21.43"/>
<text text-anchor="middle" x="1021.69" y="-181.07" font-family="Helvetica,sans-Serif" font-size="10.00" fill="#ffffff">rizpass.</text>
<text text-anchor="middle" x="1021.69" y="-170.07" font-family="Helvetica,sans-Serif" font-size="10.00" fill="#ffffff">schemas</text>
</g>
<!-- rizpass_schemas&#45;&gt;rizpass_rizpass -->
<g id="edge57" class="edge">
<title>rizpass_schemas&#45;&gt;rizpass_rizpass</title><style>.edge>path:hover{stroke-width:8}</style>
<path fill="none" stroke="black" d="M998.21,-160.29C982.81,-149.29 962.5,-134.79 945.76,-122.83"/>
<polygon fill="#c247b1" stroke="black" points="947.55,-119.81 937.38,-116.85 943.49,-125.51 947.55,-119.81"/>
</g>
<!-- rizpass_tests -->
<g id="node30" class="node">
<title>rizpass_tests</title><style>.edge>path:hover{stroke-width:8}</style>
<ellipse fill="#ac499d" stroke="black" cx="553.69" cy="-99.64" rx="45.83" ry="18"/>
<text text-anchor="middle" x="553.69" y="-97.14" font-family="Helvetica,sans-Serif" font-size="10.00" fill="#ffffff">rizpass.tests</text>
</g>
<!-- rizpass_test_better_input&#45;&gt;rizpass_tests -->
<g id="edge59" class="edge">
<title>rizpass_test_better_input&#45;&gt;rizpass_tests</title><style>.edge>path:hover{stroke-width:8}</style>
<path fill="none" stroke="black" d="M671.59,-159.53C647.18,-147.34 614.73,-131.13 590.05,-118.8"/>
<polygon fill="#c040ad" stroke="black" points="591.51,-115.62 581,-114.28 588.39,-121.88 591.51,-115.62"/>
</g>
<!-- rizpass_test_validator -->
<g id="node29" class="node">
<title>rizpass_test_validator</title><style>.edge>path:hover{stroke-width:8}</style>
<ellipse fill="#c040ad" stroke="black" cx="404.69" cy="-256.49" rx="59.29" ry="21.43"/>
<text text-anchor="middle" x="404.69" y="-259.49" font-family="Helvetica,sans-Serif" font-size="10.00" fill="#ffffff">rizpass.</text>
<text text-anchor="middle" x="404.69" y="-248.49" font-family="Helvetica,sans-Serif" font-size="10.00" fill="#ffffff">test_validator</text>
</g>
<!-- rizpass_test_validator&#45;&gt;rizpass_tests -->
<g id="edge60" class="edge">
<title>rizpass_test_validator&#45;&gt;rizpass_tests</title><style>.edge>path:hover{stroke-width:8}</style>
<path fill="none" stroke="black" d="M403.35,-235.07C403.02,-213.36 405.78,-179.16 423.69,-156.85 443.23,-132.52 475.34,-118.5 502.77,-110.54"/>
<polygon fill="#c040ad" stroke="black" points="503.88,-113.87 512.62,-107.88 502.06,-107.11 503.88,-113.87"/>
</g>
<!-- rizpass_validator -->
<g id="node31" class="node">
<title>rizpass_validator</title><style>.edge>path:hover{stroke-width:8}</style>
<ellipse fill="#f910d8" stroke="black" cx="599.69" cy="-413.35" rx="42.35" ry="21.43"/>
<text text-anchor="middle" x="599.69" y="-416.35" font-family="Helvetica,sans-Serif" font-size="10.00" fill="#ffffff">rizpass.</text>
<text text-anchor="middle" x="599.69" y="-405.35" font-family="Helvetica,sans-Serif" font-size="10.00" fill="#ffffff">validator</text>
</g>
<!-- rizpass_validator&#45;&gt;rizpass_better_input -->
<g id="edge61" class="edge">
<title>rizpass_validator&#45;&gt;rizpass_better_input</title><style>.edge>path:hover{stroke-width:8}</style>
<path fill="none" stroke="black" d="M635.67,-401.82C661.55,-392.87 696.09,-377.97 720.69,-356.13 742.24,-337.01 758.75,-308.45 769.13,-286.97"/>
<polygon fill="#f910d8" stroke="black" points="772.42,-288.21 773.46,-277.66 766.07,-285.25 772.42,-288.21"/>
</g>
<!-- rizpass_validator&#45;&gt;rizpass_credentials -->
<g id="edge62" class="edge">
<title>rizpass_validator&#45;&gt;rizpass_credentials</title><style>.edge>path:hover{stroke-width:8}</style>
<path fill="none" stroke="black" d="M567.69,-333.92C564.36,-316.37 572.82,-298.59 582.8,-284.6"/>
<polygon fill="#f910d8" stroke="black" points="585.77,-286.47 589.11,-276.41 580.23,-282.19 585.77,-286.47"/>
</g>
<!-- rizpass_validator&#45;&gt;rizpass_database_manager -->
<g id="edge63" class="edge">
<title>rizpass_validator&#45;&gt;rizpass_database_manager</title><style>.edge>path:hover{stroke-width:8}</style>
<path fill="none" stroke="black" d="M637.65,-403.85C654.49,-400.14 674.55,-395.81 692.69,-392.13 800.21,-370.32 1141.15,-363.95 1167.69,-257.49"/>
</g>
<!-- rizpass_validator&#45;&gt;rizpass_file_manager -->
<g id="edge64" class="edge">
<title>rizpass_validator&#45;&gt;rizpass_file_manager</title><style>.edge>path:hover{stroke-width:8}</style>
<path fill="none" stroke="black" d="M588.73,-392.63C581.06,-377.61 571.52,-356.13 567.69,-335.92"/>
<path fill="none" stroke="black" d="M567.69,-333.92C560.63,-296.65 535.86,-294.92 529.69,-257.49"/>
</g>
<!-- rizpass_validator&#45;&gt;rizpass_passwords -->
<g id="edge65" class="edge">
<title>rizpass_validator&#45;&gt;rizpass_passwords</title><style>.edge>path:hover{stroke-width:8}</style>
<path fill="none" stroke="black" d="M566.27,-400.16C558.84,-397.49 551.01,-394.69 543.69,-392.13 503.74,-378.16 458.19,-362.77 424.92,-351.64"/>
<polygon fill="#f910d8" stroke="black" points="425.61,-348.17 415.01,-348.32 423.39,-354.81 425.61,-348.17"/>
</g>
<!-- rizpass_validator&#45;&gt;rizpass_rizpass -->
<g id="edge66" class="edge">
<title>rizpass_validator&#45;&gt;rizpass_rizpass</title><style>.edge>path:hover{stroke-width:8}</style>
<path fill="none" stroke="black" d="M491.69,-333.92C469.18,-308.48 497.86,-290.89 491.69,-257.49"/>
</g>
<!-- rizpass_validator&#45;&gt;rizpass_test_validator -->
<g id="edge67" class="edge">
<title>rizpass_validator&#45;&gt;rizpass_test_validator</title><style>.edge>path:hover{stroke-width:8}</style>
<path fill="none" stroke="black" d="M571.22,-397.16C547.68,-383.52 514.53,-361.72 491.69,-335.92"/>
<path fill="none" stroke="black" d="M491.69,-333.92C475.2,-315.29 454.32,-296.81 437.15,-282.69"/>
<polygon fill="#f910d8" stroke="black" points="439.03,-279.71 429.06,-276.13 434.62,-285.15 439.03,-279.71"/>
</g>
</g>
</svg>
